<?xml version="1.0" standalone="no"?>
<!DOCTYPE svg PUBLIC "-//W3C//DTD SVG 20010904//EN"
 "http://www.w3.org/TR/2001/REC-SVG-20010904/DTD/svg10.dtd">
<svg version="1.0" xmlns="http://www.w3.org/2000/svg"
 width="67.000000pt" height="67.000000pt" viewBox="0 0 67.000000 67.000000"
 preserveAspectRatio="xMidYMid meet">

<g transform="translate(0.000000,67.000000) scale(0.100000,-0.100000)"
fill="#000000" stroke="none">
<path d="M283 589 c-43 -13 -90 -62 -104 -109 -14 -47 -6 -97 24 -141 l23 -34
-49 -45 c-55 -49 -86 -107 -87 -157 0 -28 4 -33 24 -33 19 0 24 6 30 38 7 49
46 104 93 133 53 33 143 33 196 0 47 -29 86 -84 93 -133 6 -32 11 -38 30 -38
20 0 24 5 24 33 -1 51 -33 109 -89 159 -32 29 -47 49 -40 53 17 11 49 87 49
119 0 43 -35 108 -72 133 -39 26 -101 36 -145 22z m122 -71 c50 -44 50 -121
-1 -169 -36 -34 -102 -34 -138 0 -76 72 -33 191 69 191 31 0 51 -6 70 -22z"/>
</g>
</svg>
